<mxfile host="app.diagrams.net" agent="Mozilla/5.0 (Windows NT 10.0; Win64; x64) AppleWebKit/537.36 (KHTML, like Gecko) Chrome/134.0.0.0 Safari/537.36" version="26.2.3">
  <diagram name="Page-1" id="NbOzVPHHTvJHR2FX5Bgp">
    <mxGraphModel dx="1740" dy="878" grid="1" gridSize="10" guides="1" tooltips="1" connect="1" arrows="1" fold="1" page="1" pageScale="1" pageWidth="850" pageHeight="1100" background="none" math="0" shadow="0">
      <root>
        <mxCell id="0" />
        <mxCell id="1" parent="0" />
        <mxCell id="tmah87dBlZrABMZFocBv-26" style="edgeStyle=orthogonalEdgeStyle;rounded=0;orthogonalLoop=1;jettySize=auto;html=1;strokeColor=light-dark(#000000,#F90606);strokeWidth=4;" edge="1" parent="1" source="tmah87dBlZrABMZFocBv-1">
          <mxGeometry relative="1" as="geometry">
            <mxPoint x="390" y="490" as="targetPoint" />
          </mxGeometry>
        </mxCell>
        <mxCell id="tmah87dBlZrABMZFocBv-1" value="Customer" style="swimlane;whiteSpace=wrap;html=1;startSize=20;swimlaneFillColor=default;fillColor=#f8cecc;gradientColor=#ea6b66;strokeColor=#b85450;" vertex="1" parent="1">
          <mxGeometry x="310" y="260" width="160" height="130" as="geometry" />
        </mxCell>
        <mxCell id="tmah87dBlZrABMZFocBv-8" value="Name&lt;span style=&quot;color: rgba(0, 0, 0, 0); font-family: monospace; font-size: 0px; text-align: start; text-wrap-mode: nowrap;&quot;&gt;%3CmxGraphModel%3E%3Croot%3E%3CmxCell%20id%3D%220%22%2F%3E%3CmxCell%20id%3D%221%22%20parent%3D%220%22%2F%3E%3CmxCell%20id%3D%222%22%20value%3D%22Order%22%20style%3D%22swimlane%3BwhiteSpace%3Dwrap%3Bhtml%3D1%3BstartSize%3D20%3B%22%20vertex%3D%221%22%20parent%3D%221%22%3E%3CmxGeometry%20x%3D%22780%22%20y%3D%22280%22%20width%3D%22160%22%20height%3D%22100%22%20as%3D%22geometry%22%2F%3E%3C%2FmxCell%3E%3C%2Froot%3E%3C%2FmxGraphModel%3E&lt;/span&gt;" style="text;html=1;align=center;verticalAlign=middle;whiteSpace=wrap;rounded=0;" vertex="1" parent="tmah87dBlZrABMZFocBv-1">
          <mxGeometry x="10" y="30" width="60" height="30" as="geometry" />
        </mxCell>
        <mxCell id="tmah87dBlZrABMZFocBv-9" value="Email" style="text;html=1;align=center;verticalAlign=middle;whiteSpace=wrap;rounded=0;" vertex="1" parent="tmah87dBlZrABMZFocBv-1">
          <mxGeometry x="10" y="60" width="60" height="30" as="geometry" />
        </mxCell>
        <mxCell id="tmah87dBlZrABMZFocBv-23" style="edgeStyle=orthogonalEdgeStyle;rounded=0;orthogonalLoop=1;jettySize=auto;html=1;entryX=0;entryY=0.5;entryDx=0;entryDy=0;fillColor=#008a00;strokeColor=#005700;strokeWidth=4;" edge="1" parent="1" source="tmah87dBlZrABMZFocBv-2" target="tmah87dBlZrABMZFocBv-3">
          <mxGeometry relative="1" as="geometry" />
        </mxCell>
        <mxCell id="tmah87dBlZrABMZFocBv-40" style="edgeStyle=orthogonalEdgeStyle;rounded=0;orthogonalLoop=1;jettySize=auto;html=1;entryX=0;entryY=0.25;entryDx=0;entryDy=0;fillColor=#008a00;strokeColor=#005700;strokeWidth=4;" edge="1" parent="1" source="tmah87dBlZrABMZFocBv-2" target="tmah87dBlZrABMZFocBv-6">
          <mxGeometry relative="1" as="geometry">
            <Array as="points">
              <mxPoint x="945" y="340" />
              <mxPoint x="945" y="515" />
            </Array>
          </mxGeometry>
        </mxCell>
        <mxCell id="tmah87dBlZrABMZFocBv-2" value="Product" style="swimlane;whiteSpace=wrap;html=1;startSize=20;swimlaneFillColor=default;fillColor=#f8cecc;gradientColor=#ea6b66;strokeColor=#b85450;" vertex="1" parent="1">
          <mxGeometry x="700" y="260" width="160" height="100" as="geometry" />
        </mxCell>
        <mxCell id="tmah87dBlZrABMZFocBv-10" value="Name&lt;span style=&quot;color: rgba(0, 0, 0, 0); font-family: monospace; font-size: 0px; text-align: start; text-wrap-mode: nowrap;&quot;&gt;%3CmxGraphModel%3E%3Croot%3E%3CmxCell%20id%3D%220%22%2F%3E%3CmxCell%20id%3D%221%22%20parent%3D%220%22%2F%3E%3CmxCell%20id%3D%222%22%20value%3D%22Order%22%20style%3D%22swimlane%3BwhiteSpace%3Dwrap%3Bhtml%3D1%3BstartSize%3D20%3B%22%20vertex%3D%221%22%20parent%3D%221%22%3E%3CmxGeometry%20x%3D%22780%22%20y%3D%22280%22%20width%3D%22160%22%20height%3D%22100%22%20as%3D%22geometry%22%2F%3E%3C%2FmxCell%3E%3C%2Froot%3E%3C%2FmxGraphModel%3E&lt;/span&gt;" style="text;html=1;align=center;verticalAlign=middle;whiteSpace=wrap;rounded=0;" vertex="1" parent="tmah87dBlZrABMZFocBv-2">
          <mxGeometry x="10" y="30" width="60" height="30" as="geometry" />
        </mxCell>
        <mxCell id="tmah87dBlZrABMZFocBv-11" value="Price" style="text;html=1;align=center;verticalAlign=middle;whiteSpace=wrap;rounded=0;" vertex="1" parent="tmah87dBlZrABMZFocBv-2">
          <mxGeometry x="10" y="60" width="60" height="30" as="geometry" />
        </mxCell>
        <mxCell id="tmah87dBlZrABMZFocBv-3" value="Category" style="swimlane;whiteSpace=wrap;html=1;startSize=20;swimlaneFillColor=default;fillColor=#f8cecc;gradientColor=#ea6b66;strokeColor=#b85450;" vertex="1" parent="1">
          <mxGeometry x="1080" y="260" width="160" height="100" as="geometry" />
        </mxCell>
        <mxCell id="tmah87dBlZrABMZFocBv-12" value="Name&lt;span style=&quot;color: rgba(0, 0, 0, 0); font-family: monospace; font-size: 0px; text-align: start; text-wrap-mode: nowrap;&quot;&gt;%3CmxGraphModel%3E%3Croot%3E%3CmxCell%20id%3D%220%22%2F%3E%3CmxCell%20id%3D%221%22%20parent%3D%220%22%2F%3E%3CmxCell%20id%3D%222%22%20value%3D%22Order%22%20style%3D%22swimlane%3BwhiteSpace%3Dwrap%3Bhtml%3D1%3BstartSize%3D20%3B%22%20vertex%3D%221%22%20parent%3D%221%22%3E%3CmxGeometry%20x%3D%22780%22%20y%3D%22280%22%20width%3D%22160%22%20height%3D%22100%22%20as%3D%22geometry%22%2F%3E%3C%2FmxCell%3E%3C%2Froot%3E%3C%2FmxGraphModel%3E&lt;/span&gt;" style="text;html=1;align=center;verticalAlign=middle;whiteSpace=wrap;rounded=0;" vertex="1" parent="tmah87dBlZrABMZFocBv-3">
          <mxGeometry x="10" y="30" width="60" height="30" as="geometry" />
        </mxCell>
        <mxCell id="tmah87dBlZrABMZFocBv-13" value="Description" style="text;html=1;align=center;verticalAlign=middle;whiteSpace=wrap;rounded=0;" vertex="1" parent="tmah87dBlZrABMZFocBv-3">
          <mxGeometry x="20" y="60" width="60" height="30" as="geometry" />
        </mxCell>
        <mxCell id="tmah87dBlZrABMZFocBv-25" style="edgeStyle=orthogonalEdgeStyle;rounded=0;orthogonalLoop=1;jettySize=auto;html=1;exitX=1;exitY=0.5;exitDx=0;exitDy=0;fillColor=#d80073;strokeColor=#A50040;strokeWidth=4;" edge="1" parent="1" source="tmah87dBlZrABMZFocBv-4">
          <mxGeometry relative="1" as="geometry">
            <mxPoint x="1020" y="540.5882352941177" as="targetPoint" />
          </mxGeometry>
        </mxCell>
        <mxCell id="tmah87dBlZrABMZFocBv-4" value="Shipping Info" style="swimlane;whiteSpace=wrap;html=1;startSize=20;glass=0;swimlaneLine=1;shadow=0;rounded=0;swimlaneFillColor=default;fillColor=#f8cecc;gradientColor=#ea6b66;strokeColor=#b85450;" vertex="1" parent="1">
          <mxGeometry x="710" y="490" width="160" height="100" as="geometry">
            <mxRectangle x="460" y="280" width="110" height="30" as="alternateBounds" />
          </mxGeometry>
        </mxCell>
        <mxCell id="tmah87dBlZrABMZFocBv-17" value="Address" style="text;html=1;align=center;verticalAlign=middle;whiteSpace=wrap;rounded=0;" vertex="1" parent="tmah87dBlZrABMZFocBv-4">
          <mxGeometry y="35" width="100" height="30" as="geometry" />
        </mxCell>
        <mxCell id="tmah87dBlZrABMZFocBv-27" style="edgeStyle=orthogonalEdgeStyle;rounded=0;orthogonalLoop=1;jettySize=auto;html=1;exitX=0.75;exitY=0;exitDx=0;exitDy=0;entryX=0;entryY=0.5;entryDx=0;entryDy=0;fillColor=#1ba1e2;strokeColor=#006EAF;strokeWidth=4;flowAnimation=0;shadow=0;" edge="1" parent="1" source="tmah87dBlZrABMZFocBv-5" target="tmah87dBlZrABMZFocBv-2">
          <mxGeometry relative="1" as="geometry">
            <Array as="points">
              <mxPoint x="480" y="500" />
              <mxPoint x="480" y="520" />
              <mxPoint x="570" y="520" />
              <mxPoint x="570" y="310" />
            </Array>
          </mxGeometry>
        </mxCell>
        <mxCell id="tmah87dBlZrABMZFocBv-5" value="Shopping Cart" style="swimlane;whiteSpace=wrap;html=1;startSize=20;swimlaneFillColor=default;fillColor=#f8cecc;gradientColor=#ea6b66;strokeColor=#b85450;" vertex="1" parent="1">
          <mxGeometry x="320" y="500" width="160" height="100" as="geometry" />
        </mxCell>
        <mxCell id="tmah87dBlZrABMZFocBv-14" value="Date Created" style="text;html=1;align=center;verticalAlign=middle;whiteSpace=wrap;rounded=0;" vertex="1" parent="tmah87dBlZrABMZFocBv-5">
          <mxGeometry x="10" y="25" width="100" height="30" as="geometry" />
        </mxCell>
        <mxCell id="tmah87dBlZrABMZFocBv-6" value="Order" style="swimlane;whiteSpace=wrap;html=1;startSize=20;swimlaneFillColor=default;fillColor=#f8cecc;gradientColor=#ea6b66;strokeColor=#b85450;" vertex="1" parent="1">
          <mxGeometry x="1030" y="490" width="160" height="100" as="geometry" />
        </mxCell>
        <mxCell id="tmah87dBlZrABMZFocBv-15" value="Order Date&lt;span style=&quot;color: rgba(0, 0, 0, 0); font-family: monospace; font-size: 0px; text-align: start; text-wrap-mode: nowrap;&quot;&gt;%3CmxGraphModel%3E%3Croot%3E%3CmxCell%20id%3D%220%22%2F%3E%3CmxCell%20id%3D%221%22%20parent%3D%220%22%2F%3E%3CmxCell%20id%3D%222%22%20value%3D%22Date%20Created%22%20style%3D%22text%3Bhtml%3D1%3Balign%3Dcenter%3BverticalAlign%3Dmiddle%3BwhiteSpace%3Dwrap%3Brounded%3D0%3B%22%20vertex%3D%221%22%20parent%3D%221%22%3E%3CmxGeometry%20x%3D%2280%22%20y%3D%22315%22%20width%3D%22100%22%20height%3D%2230%22%20as%3D%22geometry%22%2F%3E%3C%2FmxCell%3E%3C%2Froot%3E%3C%2FmxGraphModel%3E&lt;/span&gt;" style="text;html=1;align=center;verticalAlign=middle;whiteSpace=wrap;rounded=0;" vertex="1" parent="tmah87dBlZrABMZFocBv-6">
          <mxGeometry y="30" width="100" height="30" as="geometry" />
        </mxCell>
        <mxCell id="tmah87dBlZrABMZFocBv-16" value="Status" style="text;html=1;align=center;verticalAlign=middle;whiteSpace=wrap;rounded=0;" vertex="1" parent="tmah87dBlZrABMZFocBv-6">
          <mxGeometry x="-10" y="60" width="100" height="30" as="geometry" />
        </mxCell>
        <mxCell id="tmah87dBlZrABMZFocBv-45" value="1" style="text;html=1;align=center;verticalAlign=middle;whiteSpace=wrap;rounded=0;fontSize=22;" vertex="1" parent="tmah87dBlZrABMZFocBv-6">
          <mxGeometry x="-50" y="60" width="60" height="30" as="geometry" />
        </mxCell>
        <mxCell id="tmah87dBlZrABMZFocBv-7" value="Payment" style="swimlane;whiteSpace=wrap;html=1;startSize=20;swimlaneFillColor=default;fillColor=#f8cecc;gradientColor=#ea6b66;strokeColor=#b85450;" vertex="1" parent="1">
          <mxGeometry x="1290" y="490" width="160" height="120" as="geometry" />
        </mxCell>
        <mxCell id="tmah87dBlZrABMZFocBv-18" value="Amount&lt;span style=&quot;color: rgba(0, 0, 0, 0); font-family: monospace; font-size: 0px; text-align: start; text-wrap-mode: nowrap;&quot;&gt;%3CmxGraphModel%3E%3Croot%3E%3CmxCell%20id%3D%220%22%2F%3E%3CmxCell%20id%3D%221%22%20parent%3D%220%22%2F%3E%3CmxCell%20id%3D%222%22%20value%3D%22Address%22%20style%3D%22text%3Bhtml%3D1%3Balign%3Dcenter%3BverticalAlign%3Dmiddle%3BwhiteSpace%3Dwrap%3Brounded%3D0%3B%22%20vertex%3D%221%22%20parent%3D%221%22%3E%3CmxGeometry%20x%3D%22460%22%20y%3D%22315%22%20width%3D%22100%22%20height%3D%2230%22%20as%3D%22geometry%22%2F%3E%3C%2FmxCell%3E%3C%2Froot%3E%3C%2FmxGraphModel%3E&lt;/span&gt;" style="text;html=1;align=center;verticalAlign=middle;whiteSpace=wrap;rounded=0;" vertex="1" parent="tmah87dBlZrABMZFocBv-7">
          <mxGeometry x="-10" y="30" width="100" height="30" as="geometry" />
        </mxCell>
        <mxCell id="tmah87dBlZrABMZFocBv-19" value="Date" style="text;html=1;align=center;verticalAlign=middle;whiteSpace=wrap;rounded=0;" vertex="1" parent="tmah87dBlZrABMZFocBv-7">
          <mxGeometry x="-15" y="53" width="100" height="30" as="geometry" />
        </mxCell>
        <mxCell id="tmah87dBlZrABMZFocBv-20" value="Method" style="text;html=1;align=center;verticalAlign=middle;whiteSpace=wrap;rounded=0;" vertex="1" parent="tmah87dBlZrABMZFocBv-7">
          <mxGeometry x="-10" y="80" width="100" height="30" as="geometry" />
        </mxCell>
        <mxCell id="tmah87dBlZrABMZFocBv-47" value="1" style="text;html=1;align=center;verticalAlign=middle;whiteSpace=wrap;rounded=0;fontSize=22;" vertex="1" parent="tmah87dBlZrABMZFocBv-7">
          <mxGeometry x="-50" y="20" width="60" height="30" as="geometry" />
        </mxCell>
        <mxCell id="tmah87dBlZrABMZFocBv-28" style="edgeStyle=orthogonalEdgeStyle;rounded=0;orthogonalLoop=1;jettySize=auto;html=1;exitX=1;exitY=0.5;exitDx=0;exitDy=0;entryX=0.171;entryY=0.038;entryDx=0;entryDy=0;entryPerimeter=0;fillColor=#a20025;strokeColor=light-dark(#6F0000, #ff0000);strokeWidth=4;" edge="1" parent="1" source="tmah87dBlZrABMZFocBv-1" target="tmah87dBlZrABMZFocBv-6">
          <mxGeometry relative="1" as="geometry">
            <Array as="points">
              <mxPoint x="490" y="325" />
              <mxPoint x="490" y="410" />
              <mxPoint x="1057" y="410" />
            </Array>
          </mxGeometry>
        </mxCell>
        <mxCell id="tmah87dBlZrABMZFocBv-29" style="edgeStyle=orthogonalEdgeStyle;rounded=0;orthogonalLoop=1;jettySize=auto;html=1;exitX=1;exitY=0.5;exitDx=0;exitDy=0;entryX=0.16;entryY=-0.076;entryDx=0;entryDy=0;entryPerimeter=0;fillColor=#e6d0de;strokeColor=#996185;gradientColor=#d5739d;strokeWidth=4;" edge="1" parent="1" source="tmah87dBlZrABMZFocBv-6" target="tmah87dBlZrABMZFocBv-19">
          <mxGeometry relative="1" as="geometry" />
        </mxCell>
        <mxCell id="tmah87dBlZrABMZFocBv-31" value="1" style="text;html=1;align=center;verticalAlign=middle;whiteSpace=wrap;rounded=0;fontSize=22;" vertex="1" parent="1">
          <mxGeometry x="340" y="390" width="60" height="30" as="geometry" />
        </mxCell>
        <mxCell id="tmah87dBlZrABMZFocBv-33" value="1" style="text;html=1;align=center;verticalAlign=middle;whiteSpace=wrap;rounded=0;fontSize=22;" vertex="1" parent="1">
          <mxGeometry x="340" y="460" width="60" height="30" as="geometry" />
        </mxCell>
        <mxCell id="tmah87dBlZrABMZFocBv-34" value="1" style="text;html=1;align=center;verticalAlign=middle;whiteSpace=wrap;rounded=0;fontSize=22;" vertex="1" parent="1">
          <mxGeometry x="450" y="295" width="60" height="30" as="geometry" />
        </mxCell>
        <mxCell id="tmah87dBlZrABMZFocBv-35" value="*" style="text;html=1;align=center;verticalAlign=middle;whiteSpace=wrap;rounded=0;fontSize=22;" vertex="1" parent="1">
          <mxGeometry x="1047" y="456" width="60" height="30" as="geometry" />
        </mxCell>
        <mxCell id="tmah87dBlZrABMZFocBv-36" value="0...*" style="text;html=1;align=center;verticalAlign=middle;whiteSpace=wrap;rounded=0;fontSize=22;" vertex="1" parent="1">
          <mxGeometry x="700" y="360" width="60" height="30" as="geometry" />
        </mxCell>
        <mxCell id="tmah87dBlZrABMZFocBv-37" value="1" style="text;html=1;align=center;verticalAlign=middle;whiteSpace=wrap;rounded=0;fontSize=22;" vertex="1" parent="1">
          <mxGeometry x="1030" y="280" width="60" height="30" as="geometry" />
        </mxCell>
        <mxCell id="tmah87dBlZrABMZFocBv-38" value="0...*" style="text;html=1;align=center;verticalAlign=middle;whiteSpace=wrap;rounded=0;fontSize=22;" vertex="1" parent="1">
          <mxGeometry x="860" y="265" width="60" height="30" as="geometry" />
        </mxCell>
        <mxCell id="tmah87dBlZrABMZFocBv-42" value="0...*" style="text;html=1;align=center;verticalAlign=middle;whiteSpace=wrap;rounded=0;fontSize=22;" vertex="1" parent="1">
          <mxGeometry x="860" y="340" width="60" height="30" as="geometry" />
        </mxCell>
        <mxCell id="tmah87dBlZrABMZFocBv-43" value="0...*" style="text;html=1;align=center;verticalAlign=middle;whiteSpace=wrap;rounded=0;fontSize=22;" vertex="1" parent="1">
          <mxGeometry x="960" y="480" width="60" height="30" as="geometry" />
        </mxCell>
        <mxCell id="tmah87dBlZrABMZFocBv-44" value="1" style="text;html=1;align=center;verticalAlign=middle;whiteSpace=wrap;rounded=0;fontSize=22;" vertex="1" parent="1">
          <mxGeometry x="860" y="540" width="60" height="30" as="geometry" />
        </mxCell>
        <mxCell id="tmah87dBlZrABMZFocBv-46" value="1" style="text;html=1;align=center;verticalAlign=middle;whiteSpace=wrap;rounded=0;fontSize=22;" vertex="1" parent="1">
          <mxGeometry x="1170" y="510" width="60" height="30" as="geometry" />
        </mxCell>
        <mxCell id="tmah87dBlZrABMZFocBv-48" value="0...*" style="text;html=1;align=center;verticalAlign=middle;whiteSpace=wrap;rounded=0;fontSize=22;" vertex="1" parent="1">
          <mxGeometry x="480" y="490" width="60" height="30" as="geometry" />
        </mxCell>
        <mxCell id="tmah87dBlZrABMZFocBv-49" value="0...*" style="text;html=1;align=center;verticalAlign=middle;whiteSpace=wrap;rounded=0;fontSize=22;" vertex="1" parent="1">
          <mxGeometry x="640" y="280" width="60" height="30" as="geometry" />
        </mxCell>
      </root>
    </mxGraphModel>
  </diagram>
</mxfile>
